<svg xmlns="http://www.w3.org/2000/svg" id="a9656054-e901-4c68-b05e-c73cd5a73fb9" data-name="Layer 1" viewBox="0 0 21.6427 21.6179"><path d="M8.7833,6.407c2.454.37,5.4126-1.0013,8.79-4.0345A10.7677,10.7677,0,0,0,10.8214,0c-.0674,0-.1324.0089-.2.01a23.4186,23.4186,0,0,0-1.9,6.3871C8.7422,6.4006,8.7628,6.4041,8.7833,6.407Z"></path><path d="M7.2911,7.3572A9.3239,9.3239,0,0,1,2.8876,3.48,10.7781,10.7781,0,0,0,.2188,8.6479a19.3,19.3,0,0,0,6.9727,1.721A24.505,24.505,0,0,1,7.2911,7.3572Z"></path><path d="M7.4566,6.02A24.6158,24.6158,0,0,1,9.1411.1434a10.7678,10.7678,0,0,0-5.3025,2.418A8.5539,8.5539,0,0,0,7.4566,6.02Z"></path><path d="M8.5894,7.6931l-.0156-.0024a23.4593,23.4593,0,0,0-.0733,2.728A37.379,37.379,0,0,0,21.2517,7.9749a10.7991,10.7991,0,0,0-2.7091-4.729C14.8182,6.6155,11.4713,8.1254,8.5894,7.6931Z"></path><path d="M9.3721,14.8494c-.1057.0163-.208.0483-.3126.07a32.1048,32.1048,0,0,0,2.2533,6.6987,10.7744,10.7744,0,0,0,7.369-3.3742C15.1322,15.5884,12.0049,14.4414,9.3721,14.8494Z"></path><path d="M8.5762,11.7205c.054.6364.1408,1.2777.2449,1.9213.118-.0237.2329-.0592.3523-.0776,3.0034-.4642,6.476.7743,10.3444,3.6776a10.573,10.573,0,0,0,2-7.9793A38.0537,38.0537,0,0,1,8.5762,11.7205Z"></path><path d="M3.706,18.9608a10.7619,10.7619,0,0,0,6.18,2.6347,33.2546,33.2546,0,0,1-2.0793-6.2931A9.6814,9.6814,0,0,0,3.706,18.9608Z"></path><path d="M7.5568,14.0081c-.1316-.7814-.2338-1.5588-.295-2.3306a20.7313,20.7313,0,0,1-7.22-1.69C.021,10.2635,0,10.54,0,10.8214A10.767,10.767,0,0,0,2.7665,18.03,10.5835,10.5835,0,0,1,7.5568,14.0081Z"></path></svg>