<svg xmlns="http://www.w3.org/2000/svg" id="a2878c72-052b-4e83-834c-3ccfae8ad37e" data-name="Layer 1" viewBox="0 0 65 68"><path d="M57,0H8A8.0092,8.0092,0,0,0,0,8V60a8.0092,8.0092,0,0,0,8,8H57a8.0092,8.0092,0,0,0,8-8V8A8.0092,8.0092,0,0,0,57,0ZM27,65.5v-9A1.5017,1.5017,0,0,1,28.5,55h9A1.5017,1.5017,0,0,1,39,56.5v9a1.4836,1.4836,0,0,1-.0921.5H27.0921A1.4836,1.4836,0,0,1,27,65.5ZM63,60a6.0066,6.0066,0,0,1-6,6H39.95a2.5035,2.5035,0,0,0,.05-.5v-9A2.5023,2.5023,0,0,0,37.5,54h-9A2.5026,2.5026,0,0,0,26,56.5v9a2.4962,2.4962,0,0,0,.0506.5H8a6.0066,6.0066,0,0,1-6-6V8A6.0066,6.0066,0,0,1,8,2H57a6.0066,6.0066,0,0,1,6,6Z"></path><path d="M21.5,9h-5A2.503,2.503,0,0,0,14,11.5v5A2.503,2.503,0,0,0,16.5,19h5A2.503,2.503,0,0,0,24,16.5v-5A2.503,2.503,0,0,0,21.5,9ZM23,16.5A1.5017,1.5017,0,0,1,21.5,18h-5A1.5017,1.5017,0,0,1,15,16.5v-5A1.5017,1.5017,0,0,1,16.5,10h5A1.5017,1.5017,0,0,1,23,11.5Z"></path><path d="M35.5,9h-5A2.503,2.503,0,0,0,28,11.5v5A2.503,2.503,0,0,0,30.5,19h5A2.5026,2.5026,0,0,0,38,16.5v-5A2.5026,2.5026,0,0,0,35.5,9ZM37,16.5A1.5017,1.5017,0,0,1,35.5,18h-5A1.5017,1.5017,0,0,1,29,16.5v-5A1.5017,1.5017,0,0,1,30.5,10h5A1.5017,1.5017,0,0,1,37,11.5Z"></path><path d="M49.5,9h-5A2.5026,2.5026,0,0,0,42,11.5v5A2.5026,2.5026,0,0,0,44.5,19h5A2.5026,2.5026,0,0,0,52,16.5v-5A2.5026,2.5026,0,0,0,49.5,9ZM51,16.5A1.5017,1.5017,0,0,1,49.5,18h-5A1.5017,1.5017,0,0,1,43,16.5v-5A1.5017,1.5017,0,0,1,44.5,10h5A1.5017,1.5017,0,0,1,51,11.5Z"></path><path d="M21.5,23h-5A2.503,2.503,0,0,0,14,25.5v5A2.503,2.503,0,0,0,16.5,33h5A2.503,2.503,0,0,0,24,30.5v-5A2.503,2.503,0,0,0,21.5,23ZM23,30.5A1.5017,1.5017,0,0,1,21.5,32h-5A1.5017,1.5017,0,0,1,15,30.5v-5A1.5017,1.5017,0,0,1,16.5,24h5A1.5017,1.5017,0,0,1,23,25.5Z"></path><path d="M35.5,23h-5A2.503,2.503,0,0,0,28,25.5v5A2.503,2.503,0,0,0,30.5,33h5A2.5026,2.5026,0,0,0,38,30.5v-5A2.5026,2.5026,0,0,0,35.5,23ZM37,30.5A1.5017,1.5017,0,0,1,35.5,32h-5A1.5017,1.5017,0,0,1,29,30.5v-5A1.5017,1.5017,0,0,1,30.5,24h5A1.5017,1.5017,0,0,1,37,25.5Z"></path><path d="M49.5,23h-5A2.5026,2.5026,0,0,0,42,25.5v5A2.5026,2.5026,0,0,0,44.5,33h5A2.5026,2.5026,0,0,0,52,30.5v-5A2.5026,2.5026,0,0,0,49.5,23ZM51,30.5A1.5017,1.5017,0,0,1,49.5,32h-5A1.5017,1.5017,0,0,1,43,30.5v-5A1.5017,1.5017,0,0,1,44.5,24h5A1.5017,1.5017,0,0,1,51,25.5Z"></path><path d="M21.5,37h-5A2.5026,2.5026,0,0,0,14,39.5v5A2.5026,2.5026,0,0,0,16.5,47h5A2.5026,2.5026,0,0,0,24,44.5v-5A2.5026,2.5026,0,0,0,21.5,37ZM23,44.5A1.5017,1.5017,0,0,1,21.5,46h-5A1.5017,1.5017,0,0,1,15,44.5v-5A1.5017,1.5017,0,0,1,16.5,38h5A1.5017,1.5017,0,0,1,23,39.5Z"></path><path d="M35.5,37h-5A2.5026,2.5026,0,0,0,28,39.5v5A2.5026,2.5026,0,0,0,30.5,47h5A2.5023,2.5023,0,0,0,38,44.5v-5A2.5023,2.5023,0,0,0,35.5,37ZM37,44.5A1.5017,1.5017,0,0,1,35.5,46h-5A1.5017,1.5017,0,0,1,29,44.5v-5A1.5017,1.5017,0,0,1,30.5,38h5A1.5017,1.5017,0,0,1,37,39.5Z"></path><path d="M49.5,37h-5A2.5023,2.5023,0,0,0,42,39.5v5A2.5023,2.5023,0,0,0,44.5,47h5A2.5023,2.5023,0,0,0,52,44.5v-5A2.5023,2.5023,0,0,0,49.5,37ZM51,44.5A1.5017,1.5017,0,0,1,49.5,46h-5A1.5017,1.5017,0,0,1,43,44.5v-5A1.5017,1.5017,0,0,1,44.5,38h5A1.5017,1.5017,0,0,1,51,39.5Z"></path></svg>