<svg xmlns="http://www.w3.org/2000/svg" id="fd621a44-5038-4cbe-a910-f7df2902c96b" data-name="Layer 1" viewBox="0 0 52.2002 50.4004"><rect x="-5.3707" y="24.7912" width="63.0102" height="1.9998" transform="translate(-10.4904 27.5731) rotate(-48.6975)"></rect><path d="M42.96,32.748a9.24,9.24,0,1,0,9.24,9.24A9.2512,9.2512,0,0,0,42.96,32.748Zm0,16.4805a7.24,7.24,0,1,1,7.24-7.24A7.2486,7.2486,0,0,1,42.96,49.2285Z" transform="translate(0 -0.8281)"></path><path d="M18.48,10.0684a9.24,9.24,0,1,0-9.24,9.24A9.25,9.25,0,0,0,18.48,10.0684Zm-16.48,0a7.24,7.24,0,1,1,7.24,7.24A7.2486,7.2486,0,0,1,2,10.0684Z" transform="translate(0 -0.8281)"></path></svg>