<svg xmlns="http://www.w3.org/2000/svg" id="bfb1d91c-5aae-424a-99ba-18aaf8c68dee" data-name="Layer 1" viewBox="0 0 10.7998 19.2002"><g id="ad9463ed-d822-44a6-8e8e-feedaee54179" data-name="Website-Chosen-Pages"><g id="ac566758-a30f-499e-8932-0946d36472d9" data-name="Home-Page"><g id="a9800e26-ec50-4d71-a3e0-f3be76134493" data-name="Footer"><g id="beedb36a-d820-4d09-9d30-e58e4cf02069" data-name="Facebook-Copy-2"><g id="e8941729-3c2a-43f9-9551-37c144ee688e" data-name="path-1"><path d="M7.3613,19.2H2.897V10.8994H0V6.6626H2.897V4.7764A4.45,4.45,0,0,1,7.7119,0a25.0306,25.0306,0,0,1,2.65.1309L10.8.186V4.0205L8.5244,4.022c-1.0488,0-1.1631.3442-1.1631,1.0747V6.6626h3.3926l-.5664,4.2368H7.3613Zm-3.4643-1H6.3613V9.8989H9.3125l.2988-2.2363h-3.25V5.0967c0-.8906.2246-2.0747,2.1631-2.0747l1.2754,0v-1.94C9.3125,1.042,8.5459,1,7.7119,1A3.4878,3.4878,0,0,0,3.897,4.7764V7.6626H1V9.8989H3.897Z"></path></g></g></g></g></g></svg>