<svg xmlns="http://www.w3.org/2000/svg" id="f683af0a-7132-48c7-af08-9e033f664ce4" data-name="Layer 1" viewBox="0 0 31.2002 64.8174"><path d="M34.3,12.7913a1.8,1.8,0,1,0-1.8-1.8A1.8,1.8,0,0,0,34.3,12.7913Z" transform="translate(-16.8999 -1.5913)"></path><path d="M36.2255,56.4175C43.1164,53.513,48.1,42.6832,48.1,29.3911c0-15.5889-6.8525-27.8-15.6-27.8s-15.6,12.2109-15.6,27.8c0,13.3539,5.03,24.2212,11.9711,27.0651-3.3827,1.3219-5.8612,4.5283-6.5424,8.7914l-.1855,1.1611,1.1753-.0029q5.0067-.0147,18.2558,0l1.1758.0009-.1875-1.16C41.8165,60.63,39.65,57.6386,36.2255,56.4175ZM32.5,3.5913c4.5336,0,8.5535,4.2343,11.026,10.7232-3.9109,2.3485-7.6168,3.5522-11.026,3.5522-3.3868,0-7.0988-1.1856-11.0447-3.5023C23.9262,7.8474,27.9548,3.5913,32.5,3.5913Zm-13.6,25.8a44.3836,44.3836,0,0,1,1.889-13.0953A23.8285,23.8285,0,0,0,32.5,19.8667a23.3949,23.3949,0,0,0,11.6965-3.6191A44.3571,44.3571,0,0,1,46.1,29.3911c0,14.2256-6.1011,25.8-13.6,25.8S18.9,43.6167,18.9,29.3911ZM30.3833,64.3989q-3.5354,0-5.8345.0039c1.0645-3.999,4.1206-6.6093,7.8916-6.6113,4.2837.0439,6.8838,2.21,7.919,6.6133Q34.5235,64.3989,30.3833,64.3989Z" transform="translate(-16.8999 -1.5913)"></path><polygon points="22.276 36.144 20.028 38.311 20.722 39.031 23.615 36.241 21.071 32.946 23.661 30.867 21.057 27.828 23.621 25.289 20.761 21.809 19.989 22.444 22.27 25.22 19.693 27.772 22.23 30.733 19.679 32.781 22.276 36.144"></polygon><polygon points="15.896 32.946 18.486 30.867 15.882 27.828 18.446 25.289 15.586 21.809 14.814 22.444 17.095 25.22 14.518 27.772 17.055 30.733 14.504 32.781 17.101 36.144 14.853 38.311 15.547 39.031 18.44 36.241 15.896 32.946"></polygon><polygon points="10.682 27.828 13.246 25.289 10.386 21.809 9.614 22.444 11.895 25.22 9.318 27.772 11.855 30.733 9.304 32.781 11.901 36.144 9.653 38.311 10.347 39.031 13.24 36.241 10.696 32.946 13.286 30.867 10.682 27.828"></polygon></svg>