<svg xmlns="http://www.w3.org/2000/svg" id="a88eed2a-163c-4f1c-8bd8-1f44603bae4b" data-name="a0369679-caad-4a93-bfcb-54f9bf5461d3" viewBox="0 0 46.3624 57.6"><path d="M0,0V57.6H46.3624V0ZM2,13.7817l4.5019,1.6146v2.101H7.9055V15.9l4.2523,1.5251v2.1367h1.4037V17.9282L18.34,19.642v18.9l-4.7785,2.0072V38.7413H12.1578v2.3975L7.9055,42.9249V40.8055H6.5019v2.709L2,45.4055Zm42.5009,22.07a7.1445,7.1445,0,0,1,0-14.1218Zm0-15.9848a8.85,8.85,0,0,0-7.8655,9.7355c.0043.04.0088.08.0136.12a8.9961,8.9961,0,0,0,7.8519,8.0033v1.9166L44.3625,55.6H2V48.0477l18.34-8.2855s4.9245-1.8549,6.8985-3.62a9.599,9.599,0,0,0,2.9663-7.1807A9.537,9.537,0,0,0,27.2383,21.8,16.634,16.634,0,0,0,20.34,18.1311L2,11.3046V2l42.5009-.001ZM20.34,37.7622V20.22a14.32,14.32,0,0,1,5.5152,3.0244,7.5114,7.5114,0,0,1,2.35,5.7173,7.5718,7.5718,0,0,1-2.354,5.7412A14.4345,14.4345,0,0,1,20.34,37.7622Z" transform="translate(0 0)"></path></svg>