<svg xmlns="http://www.w3.org/2000/svg" id="e4df6930-b60b-41dd-86ae-d8e6e1f171bf" data-name="Layer 1" viewBox="0 0 42.2402 56.6396"><path d="M36.5823,14.4C35.3158,9.8585,33.4675,6.3435,31.084,3.96A13.5674,13.5674,0,0,0,21.12,0a13.569,13.569,0,0,0-9.9643,3.96C8.7717,6.3435,6.9244,9.8585,5.658,14.4H0V56.64H42.24V14.4ZM12.57,5.374A11.4879,11.4879,0,0,1,21.12,2a11.486,11.486,0,0,1,8.55,3.374A20.4774,20.4774,0,0,1,34.335,13.84H7.9048A20.4728,20.4728,0,0,1,12.57,5.374ZM40.24,54.64H2V16.4H40.24Z"></path><path d="M19.8,37.6971V41.46a1.98,1.98,0,1,0,3.96,0V37.6964a4.62,4.62,0,1,0-3.96.0007ZM21.78,31.32a2.2133,2.2133,0,0,1,.6715,4.3244,1.8621,1.8621,0,0,0-1.3428,0A2.2134,2.2134,0,0,1,21.78,31.32Z"></path></svg>