<svg xmlns="http://www.w3.org/2000/svg" id="be0d71f2-4ac3-48bc-b7fb-c483228376ff" data-name="Layer 1" viewBox="0 0 45.792 62.8892"><polygon points="20.352 34.633 23.168 34.633 23.168 46.353 25.168 46.353 25.168 32.633 20.352 32.633 20.352 34.633"></polygon><path d="M24.064,17.5657,34.3057,1.5386,32.62.4614l-9.749,15.2564L12.51.439,10.855,1.561,21.7087,17.5668a22.895,22.895,0,1,0,2.3553-.0011ZM22.896,61.3281A20.896,20.896,0,1,1,43.792,40.4316,20.92,20.92,0,0,1,22.896,61.3281Z" transform="translate(0 -0.439)"></path><path d="M22.896,23.896A16.5359,16.5359,0,1,0,39.4316,40.4316,16.5546,16.5546,0,0,0,22.896,23.896Zm0,31.0718A14.5359,14.5359,0,1,1,37.4316,40.4316,14.5524,14.5524,0,0,1,22.896,54.9678Z" transform="translate(0 -0.439)"></path></svg>