<svg xmlns="http://www.w3.org/2000/svg" id="a0374a9b-ea4a-4781-880b-59a080d70b93" data-name="Layer 1" viewBox="0 0 59.7944 62.5557"><path d="M58.8,23.8735C56.6909,16.84,51.6118,12.6313,47.9028,11.1646c-4.4912-1.7774-7.5869.4423-10.3193,2.3984-1.901,1.3619-3.7107,2.6385-5.9623,2.82C32.6579,7.7936,36.99,3.6006,44.8628,3.6006v-2c-5.1689,0-9.0577,1.6338-11.6482,4.8681C31.8407,2.1785,27.5984,0,20.5576,0H19.4854L19.56,1.0693c.2138,3.0694,1.2617,5.3531,3.1142,6.7871a9.7525,9.7525,0,0,0,6.1138,1.76,20.5864,20.5864,0,0,0,2.6374-.2052,22.5056,22.5056,0,0,0-1.8012,6.8469,16.401,16.401,0,0,1-5.3391-2.5592c-2.9908-1.8979-6.38-4.05-11.1-2.5581l-.0982.0371C2.5415,15.7793-1.852,25.0889.7153,37.3916c2.669,12.79,12.0958,24.8311,17.4541,24.8311a13.9547,13.9547,0,0,0,7.4942-1.9219,9.9977,9.9977,0,0,1,5.4228-1.4883c2.05,0,4.2481.9658,6.3731,1.8994,2.0234.8887,4.1963,1.8438,6.2773,1.8438a5.75,5.75,0,0,0,4.6162-2.27C60.7222,42.6494,60.8618,30.75,58.8,23.8735ZM23.8989,6.2754a6.3135,6.3135,0,0,1-2.2231-4.2559c5.6016.2032,8.8032,1.9756,9.74,5.3946C28.0347,7.9053,25.5093,7.5225,23.8989,6.2754ZM46.7671,59.0693c-2.0635,2.4678-4.5742,1.5381-8.5029-.1884-2.3145-1.0166-4.708-2.0684-7.1778-2.0684a11.9345,11.9345,0,0,0-6.3588,1.7217,11.9551,11.9551,0,0,1-6.5582,1.6885c-4.0048,0-12.9956-11.2559-15.496-23.2393C-.3354,22.5645,7.0708,16.001,13.8379,13.0322c3.8057-1.1816,6.5112.5362,9.3755,2.3555,2.3481,1.49,4.7764,3.0317,7.873,3.0317,3.15,0,5.4434-1.6421,7.6612-3.23,2.6513-1.9,4.9414-3.54,8.4189-2.1651a17.7951,17.7951,0,0,1,9.7178,11.4239C58.8189,30.9,58.6245,42.1562,46.7671,59.0693Z"></path></svg>