<svg xmlns="http://www.w3.org/2000/svg" id="ba3cdd9b-6257-44f0-98dc-fba623a73394" data-name="Layer 1" viewBox="0 0 65 65"><path d="M57,0H8A8.0092,8.0092,0,0,0,0,8V57a8.0092,8.0092,0,0,0,8,8H57a8.0092,8.0092,0,0,0,8-8V8A8.0092,8.0092,0,0,0,57,0Zm6,57a6.0066,6.0066,0,0,1-6,6H8a6.0066,6.0066,0,0,1-6-6V8A6.0066,6.0066,0,0,1,8,2H57a6.0066,6.0066,0,0,1,6,6Z"></path><polygon points="15.332 21.076 12.625 18.906 11.375 20.466 15.439 23.725 22.846 16.727 21.472 15.273 15.332 21.076"></polygon><polygon points="15.332 34.075 12.625 31.906 11.375 33.466 15.439 36.726 22.846 29.727 21.472 28.273 15.332 34.075"></polygon><polygon points="15.332 47.075 12.625 44.905 11.375 46.466 15.439 49.726 22.846 42.727 21.472 41.273 15.332 47.075"></polygon><rect x="28.5" y="16.5" width="25" height="2"></rect><rect x="28.5" y="44" width="25" height="2"></rect><rect x="28.5" y="30" width="25" height="2"></rect></svg>