<svg xmlns="http://www.w3.org/2000/svg" id="b10c99c2-3ce8-40c5-b312-1b8d1da09695" data-name="Layer 1" viewBox="0 0 61.2202 67.7944"><g id="a0cc4640-2a1d-4510-a1e0-6826bbe85c09" data-name="Path-13"><path d="M60.1644,29.2617A30.6056,30.6056,0,0,0,25.6757,6.9785L26.22,9.3364A28.1943,28.1943,0,1,1,16.5071,61.603,28.01,28.01,0,0,1,3.3685,44.48,28.3682,28.3682,0,0,1,2.4,37.4771H0a30.7856,30.7856,0,0,0,1.05,7.624A30.6362,30.6362,0,0,0,30.5569,67.7944a30.7837,30.7837,0,0,0,7.97-1.0556A30.5988,30.5988,0,0,0,60.1644,29.2617Z"></path><polygon points="28.501 15.388 19.426 9.525 25.203 1.39 23.246 0 16.017 10.18 27.199 17.404 28.501 15.388"></polygon></g></svg>