<svg xmlns="http://www.w3.org/2000/svg" id="eeb894e8-e08c-4f84-9b51-9fddc105aefc" data-name="Layer 1" viewBox="0 0 74.7233 68.771"><path d="M75.0156,39.8594c-.622-2.9151-2.29-4.7168-4.8222-5.209A22.2818,22.2818,0,0,0,53.6943,37.375a13.6365,13.6365,0,0,0-7.6845-1.88c-4.75,0-12.2554,4.9317-14.1617,6.2393a27.0949,27.0949,0,0,0-4.811-1.26,34.9768,34.9768,0,0,0,.1331-7.3227q-.0428-2.1055-.3128-4.42c-.087-1.0551-.1819-2.1348-.2807-3.2285-.1138-1.2612-.2154-2.3867-.253-3.0454A22.4336,22.4336,0,0,1,29.53,23.6055a14.89,14.89,0,0,0,4.6841,1.4316c3.1465,0,10.3427-5.8887,10.3427-7.9092,0-1.46-1.8808-2.9008-3.3584-3.8071,1.4483-1.6333,2.9-3.8457,1.625-5.1392-.7158-.7265-3.5966-3.1889-6.1386-5.3618C35.3311,1.6631,34.1807.68,33.7822.3188c-1.0581-.9589-2.5849-.414-15.581,9.4351-1.8174,1.3774-3.3872,2.5674-4.001,2.9717C12.3281,13.96,9.4946,20.875,5.9854,29.7881c-.9273,2.3545-1.7276,4.3877-2.2046,5.4267C2.5317,37.9355,1.4927,43.9531.6045,53.6113l-.0337.3662.2109.3008A12.7278,12.7278,0,0,0,4.189,57.2021c15.3447,8.8741,28.5019,11.5547,38.8022,11.5547,15.5938,0,24.6358-6.1474,24.7842-6.2509C71.4248,59.94,76.5479,47.0381,75.0156,39.8594Zm-8.3906,21.01C60.085,65.4668,36.2969,73.46,5.24,55.502A12.8325,12.8325,0,0,1,2.6323,53.4C3.48,44.3271,4.4775,38.49,5.5981,36.0488c.5-1.0888,1.31-3.146,2.2481-5.5283,2.0835-5.2915,5.9619-15.1416,7.4546-16.125.6689-.4409,2.1865-1.5913,4.1084-3.0474,3.7534-2.8442,11.393-8.6337,13.3164-9.2934.5415.4751,1.5307,1.3208,2.66,2.2856C37.5571,6.1968,40.499,8.7119,41.31,9.4976a9.8248,9.8248,0,0,1-2.42,3.3549l-.3256.3255-.0162-.0134c-.0546.0656-.1117.1315-.1679.1975l-.4512.4509.0369.0194c-1.368,1.4974-3.0732,2.8373-4.3733,2.1193-.48-.2642-1.7554-.9668-.419-4.357l-1.86-.7334c-1.6382,4.1548-.19,6.0142,1.3144,6.8423a3.59,3.59,0,0,0,1.7544.4634c1.6384,0,3.4433-1.1345,5.3874-3.3643a7.9618,7.9618,0,0,1,2.7762,2.293c-.5078,1.2651-6.3638,5.9414-8.332,5.9414a15.14,15.14,0,0,1-3.9234-1.2812,20.1617,20.1617,0,0,0-3.5882-1.2452,13.622,13.622,0,0,1,.745-1.8525L25.65,17.7793a14.4448,14.4448,0,0,0-1.268,3.771,1.7591,1.7591,0,0,0-.0743.4893v.0039a10.71,10.71,0,0,0,.0492,3.3842c.2148,1.1906.3736,2.3335.5058,3.4521.1185,1.4437.2337,3.02.3143,4.5583A24.0082,24.0082,0,0,1,24.12,41.5029c-1.2339,3.5645-2.6035,5.8037-4.0708,6.6553l1.0039,1.73c1.8881-1.0965,3.4861-3.5673,4.8838-7.5348a21.505,21.505,0,0,1,4.1468.8995,19.7424,19.7424,0,0,0-1.6722,1.5982L29.89,46.1992a29.3525,29.3525,0,0,1,3.8228-3.289l-.0074-.01c2.5012-1.65,8.5989-5.4052,12.3048-5.4052a12.0015,12.0015,0,0,1,6.4109,1.437l-.0164.024a19.2662,19.2662,0,0,1,4.6934,4.6416l1.6191-1.1758A22.2209,22.2209,0,0,0,55.356,38.74a20.4524,20.4524,0,0,1,14.4545-2.1263c1.7325.3369,2.795,1.5351,3.2491,3.6631C74.45,46.792,69.3574,58.9492,66.625,60.8691Z" transform="translate(-0.5708 0.0142)"></path></svg>