<svg xmlns="http://www.w3.org/2000/svg" id="acaec5df-f1c0-4cd0-b487-bbfebf6bac48" data-name="Layer 1" viewBox="0 0 54.6338 56.7441"><path d="M50.9905,4.1257c.1519-.979.2932-1.9767.4162-3.007L51.5405,0H3.2l.1333,1.1187c.1335,1.1173.2869,2.1989.4543,3.2559C1.3745,7.0843.1831,9.4706.1831,11.6465a5.3349,5.3349,0,0,0,2.3818,4.6714,4.5978,4.5978,0,0,0,2.4214.6538,6.5238,6.5238,0,0,0,2.0112-.355c3.93,9.8035,10.4467,14.9088,19.4815,15.2221V48.213c-8.6732.1718-13.9443,2.5812-15.6538,7.1825l-.501,1.3486H44.6333l-.501-1.3476c-1.709-4.6022-6.98-7.0117-15.6533-7.1835V31.8335c8.9466-.3878,15.4-5.5182,19.2949-15.293a6.651,6.651,0,0,0,2.2393.4312,4.5983,4.5983,0,0,0,2.4219-.6538,5.3349,5.3349,0,0,0,2.3818-4.6714C54.8169,9.4044,53.556,6.9391,50.9905,4.1257ZM3.6045,14.6089a3.4094,3.4094,0,0,1-1.4214-2.9624A8.23,8.23,0,0,1,4.24,6.9492,56.6788,56.6788,0,0,0,6.3,14.7571,3.2023,3.2023,0,0,1,3.6045,14.6089ZM41.5669,54.7441H13.3906c2.0293-3.02,6.7564-4.5478,14.0884-4.5478S39.5386,51.7246,41.5669,54.7441ZM27.37,29.86C15.1025,29.86,7.9287,20.7446,5.46,2H49.28C46.812,20.7446,39.6382,29.86,27.37,29.86ZM51.396,14.6089a3.3367,3.3367,0,0,1-2.9246.0643,57.1743,57.1743,0,0,0,2.0812-7.982c1.4954,1.8869,2.2643,3.5515,2.2643,4.9553A3.4114,3.4114,0,0,1,51.396,14.6089Z" transform="translate(-0.1831)"></path></svg>