<svg xmlns="http://www.w3.org/2000/svg" id="bc44cce7-35c1-4189-8298-6ffb0c31bd57" data-name="Layer 1" viewBox="0 0 42.0329 61.6045"><path d="M38.5027,14.0171A24.392,24.392,0,0,1,41.1561,3.8379c.7617-1.6763,1.1445-2.5181.665-3.2627A1.2929,1.2929,0,0,0,40.7039,0H30.39c-1.3379,0-2.002,1.0913-2.6445,2.1465C26.7,3.8633,25.4006,6,20.7947,6c-5.4038,0-6.6514-2.0967-7.6534-3.7812C12.5227,1.1782,11.8215,0,10.2605,0H1.1253L.553.0381.2527.43c-.4467.5825-.2734,1.229.3018,3.3711C1.76,8.2881,4.2664,17.626.2327,25.6118l-.1069.2114L.1253,26.06C.108,32.483.1053,41.7358.1171,53.6045H.11v2h.009C.121,57.2274.123,58.89.1253,60.6055l.0015.999H42.0329V25.8779l-.0654-.1718C39.8864,20.2559,38.5027,16.3232,38.5027,14.0171ZM2.1248,26.2988c4.228-8.6147,1.62-18.3286.3613-23.0166-.1167-.435-.2417-.9-.3349-1.2822h8.1093c.3711,0,.581.2642,1.1621,1.2407C12.55,5.1357,14.2532,8,20.7947,8c5.73,0,7.563-3.0132,8.6587-4.813C29.7756,2.6577,30.176,2,30.39,2H39.785c-.1309.3086-.295.67-.4493,1.01a26.15,26.15,0,0,0-2.833,11.0068c0,2.5605,1.3759,6.562,3.53,12.23V53.6045H2.1171C2.1057,41.8792,2.108,32.71,2.1248,26.2988Zm-.001,33.3057c-.0017-1.3668-.0032-2.6934-.0046-4H40.0329v4Z"></path><polygon points="16.71 22.005 20.079 22.005 20.079 39.407 22.079 39.407 22.079 20.005 16.71 20.005 16.71 22.005"></polygon></svg>