<svg xmlns="http://www.w3.org/2000/svg" id="ba647926-cf3c-474a-a7fd-a16815eee582" data-name="Layer 1" viewBox="0 0 54.334 50.3296"><g id="e26f99a2-0208-4ee9-9156-cdf8574785fa" data-name="Website-Chosen-Pages"><g id="ee92f1b3-d39a-465e-bdf8-e78fc1928a9a" data-name="Programs-Page"><polygon points="14.854 24.023 16.268 22.609 9.548 15.889 16.268 9.169 14.854 7.755 8.134 14.475 1.414 7.755 0 9.169 6.72 15.889 0 22.609 1.414 24.023 8.134 17.303 14.854 24.023"></polygon><path d="M45.52,32.748a9.24,9.24,0,1,0,9.24,9.24A9.25,9.25,0,0,0,45.52,32.748Zm0,16.4805a7.24,7.24,0,1,1,7.24-7.24A7.2476,7.2476,0,0,1,45.52,49.2285Z" transform="translate(-0.4258 -0.8989)"></path><polygon points="48.585 22.16 50.585 22.16 50.585 2 50.585 0 48.585 0 28.425 0 28.425 2 47.051 2 6.723 47.9 8.226 49.22 48.585 3.284 48.585 22.16"></polygon></g></g></svg>