<svg xmlns="http://www.w3.org/2000/svg" id="a89e9ba3-85fc-4cb9-9617-32b0e3582e83" data-name="Layer 1" viewBox="0 0 63.3144 56.6001"><path d="M61.8121,22.6357c-.9434-.5278-2.2087-.2167-3.9351.9483-1.6289,1.1533-5.4941,3.7126-11.4585,7.5869a9.4327,9.4327,0,0,0-5.5641-6.1049A13.192,13.192,0,1,0,21.9926,11.7614,10.7919,10.7919,0,1,0,6.4287,24.889,9.4109,9.4109,0,0,0,0,33.8V46.2a9.4108,9.4108,0,0,0,9.4,9.4h28a9.4089,9.4089,0,0,0,9.1315-7.211c7.9248,6.9378,10.5235,8.0175,11.7786,8.2l.1446.0107a4.87,4.87,0,0,0,3.6806-1.3223,5.0532,5.0532,0,0,0,1.168-3.8672V29.2C63.2955,23.4672,63.2955,23.4672,61.8121,22.6357ZM35.11,2a11.2,11.2,0,1,1-11.2,11.2A11.2125,11.2125,0,0,1,35.11,2ZM28.1584,24.4H18.149a10.7989,10.7989,0,0,0,4.4162-7.1145A13.2466,13.2466,0,0,0,28.1584,24.4Zm-25.0453-8.74c0-.02-.003-.0394-.003-.0594a8.81,8.81,0,0,1,8.8-8.8c.02,0,.0393.0029.0594.003A8.8085,8.8085,0,0,1,20.71,15.6c0,.02-.0029.0393-.003.0594A8.8066,8.8066,0,0,1,11.97,24.3969c-.02,0-.0394.003-.0594.003A8.8085,8.8085,0,0,1,3.1131,15.6594ZM44.8,46.2A7.4079,7.4079,0,0,1,37.4,53.6H9.4A7.4085,7.4085,0,0,1,2,46.2V33.8a7.4085,7.4085,0,0,1,7.4-7.4h28A7.4079,7.4079,0,0,1,44.8,33.8Zm15.8867,7.6992a2.94,2.94,0,0,1-2.1523.7012c-.9522-.18-3.6348-1.5029-11.0733-8.0527V32.8794c6.0245-3.9131,9.9151-6.4893,11.5157-7.6265,1.074-.6218,1.57-.373,1.68-.3119.6045.3393.6476,1.8114.6476,4.2587l.001,22.26A3.2452,3.2452,0,0,1,60.6865,53.8989Z"></path></svg>