<svg xmlns="http://www.w3.org/2000/svg" id="bd2fdf12-21ad-4073-840c-45f29be4130c" data-name="Layer 1" viewBox="0 0 22.4 18.2"><path d="M17.0374,0H5.3627A5.379,5.379,0,0,0,0,5.3851v7.43A5.379,5.379,0,0,0,5.3627,18.2H17.0374A5.3789,5.3789,0,0,0,22.4,12.8149v-7.43A5.3789,5.3789,0,0,0,17.0374,0ZM20.8,12.8149a3.7705,3.7705,0,0,1-3.7626,3.7792H5.3627A3.7705,3.7705,0,0,1,1.6,12.8149v-7.43A3.7707,3.7707,0,0,1,5.3627,1.6059H17.0374A3.7707,3.7707,0,0,1,20.8,5.3851Z"></path><path d="M14.7147,7.74,10.448,5.0639A1.566,1.566,0,0,0,9.6,4.8176a1.5457,1.5457,0,0,0-.7755.2035A1.5984,1.5984,0,0,0,8,6.4235v5.353a1.5986,1.5986,0,0,0,.8245,1.4025,1.5476,1.5476,0,0,0,.7755.2034,1.566,1.566,0,0,0,.848-.2463L14.7147,10.46a1.6053,1.6053,0,0,0,0-2.7193ZM9.6,11.7765V6.4235L13.8667,9.1Z"></path></svg>